<?xml version="1.0" encoding="iso-8859-1"?>
<!-- Generator: Adobe Illustrator 24.3.0, SVG Export Plug-In . SVG Version: 6.00 Build 0)  -->
<svg version="1.1" xmlns="http://www.w3.org/2000/svg" xmlns:xlink="http://www.w3.org/1999/xlink" x="0px" y="0px"
	 viewBox="0 0 520 520" style="enable-background:new 0 0 520 520;" xml:space="preserve">
<g id="_x34_42_x2C__Education_x2C__kids_x2C__learning_x2C__preschool">
	<g>
		<path style="fill:#FFFFFF;" d="M215,300l45,150l45-150h142.5c17.95,0,32.5-14.55,32.5-32.5v-135c0-17.95-14.55-32.5-32.5-32.5
			h-375C54.55,100,40,114.55,40,132.5v135c0,17.95,14.55,32.5,32.5,32.5H215z"/>
		<circle style="fill:#A7C7FC;" cx="390" cy="410" r="70"/>
		<circle style="fill:#A7C7FC;" cx="90" cy="450" r="20"/>
		<circle style="fill:#A7C7FC;" cx="445" cy="55" r="15"/>
		<circle style="fill:#A7C7FC;" cx="180" cy="50" r="20"/>
		<polygon style="fill:#A7C7FC;" points="160,300 160,400 130,360 100,400 100,300 100,180 160,180 		"/>
		<circle style="fill:#4D80C9;" cx="470" cy="340" r="10"/>
		<polygon style="fill:#4D80C9;" points="460,161.01 460,179.04 446.61,179.04 446.61,193.7 426.32,193.7 426.32,179.04 
			413.08,179.04 413.08,161.01 426.32,161.01 426.32,146.35 446.61,146.35 446.61,161.01 		"/>
		<path style="fill:#4D80C9;" d="M417.68,427.33v17.64h-52.91v-17.64h17.391V396.1c-0.73,0.98-1.88,1.98-3.43,3
			c-1.551,1.02-3.29,1.96-5.2,2.82c-1.92,0.85-3.891,1.55-5.891,2.08s-3.77,0.79-5.319,0.79v-18.12c1.3,0,3-0.45,5.08-1.35
			c2.08-0.9,4.14-1.98,6.18-3.25c2.05-1.261,3.88-2.551,5.52-3.86c1.631-1.3,2.65-2.37,3.061-3.18h19.97v52.3H417.68z"/>
		<path style="fill:#4D80C9;" d="M369.81,120l36.5,100.05h-23.67l-7.75-22.41h-31.14l-7.61,22.41h-23.68L348.96,120H369.81z
			 M371.08,181.72l-11.69-35.37l-11.979,35.37H371.08z"/>
		<circle style="fill:#4D80C9;" cx="380" cy="60" r="10"/>
		<circle style="fill:#4D80C9;" cx="290" cy="470" r="10"/>
		<circle style="fill:#4D80C9;" cx="250" cy="60" r="10"/>
		<circle style="fill:#4D80C9;" cx="200" cy="420" r="10"/>
		<circle style="fill:#4D80C9;" cx="150" cy="470" r="10"/>
		<circle style="fill:#4D80C9;" cx="110" cy="40" r="10"/>
		<circle style="fill:#4D80C9;" cx="60" cy="340" r="10"/>
		<path style="fill:#4D80C9;" d="M260,460c-4.416,0-8.31-2.897-9.578-7.127L207.56,310H160c-5.523,0-10-4.478-10-10s4.477-10,10-10
			h55c4.416,0,8.31,2.897,9.578,7.127L260,415.199l35.422-118.072c1.268-4.23,5.162-7.127,9.578-7.127h142.5
			c12.406,0,22.5-10.094,22.5-22.5v-135c0-12.407-10.094-22.5-22.5-22.5h-375C60.093,110,50,120.093,50,132.5v135
			c0,12.406,10.093,22.5,22.5,22.5H100c5.523,0,10,4.478,10,10s-4.477,10-10,10H72.5C49.065,310,30,290.935,30,267.5v-135
			C30,109.065,49.065,90,72.5,90h375c23.435,0,42.5,19.065,42.5,42.5v135c0,23.435-19.065,42.5-42.5,42.5H312.44l-42.862,142.873
			C268.31,457.103,264.416,460,260,460z"/>
		<path style="fill:#4D80C9;" d="M160.001,410.001c-3.088,0-6.076-1.435-8.001-4.001l-22-29.333L108,406
			c-2.583,3.443-7.081,4.846-11.162,3.487C92.754,408.126,90,404.305,90,400V180c0-5.523,4.477-10,10-10h60c5.523,0,10,4.477,10,10
			v220c0,4.305-2.754,8.126-6.838,9.487C162.123,409.833,161.056,410.001,160.001,410.001z M130,350c3.147,0,6.111,1.482,8,4l12,16
			V190h-40v180l12-16C123.889,351.482,126.852,350,130,350z"/>
		<path style="fill:#4D80C9;" d="M240,190h-50c-5.523,0-10-4.477-10-10s4.477-10,10-10h50c5.523,0,10,4.477,10,10
			S245.523,190,240,190z"/>
		<path style="fill:#4D80C9;" d="M260,220h-70c-5.523,0-10-4.477-10-10s4.477-10,10-10h70c5.522,0,10,4.477,10,10
			S265.522,220,260,220z"/>
		<path style="fill:#4D80C9;" d="M290,250H190c-5.523,0-10-4.477-10-10s4.477-10,10-10h100c5.522,0,10,4.477,10,10
			S295.522,250,290,250z"/>
		<path style="fill:#4D80C9;" d="M290,280H190c-5.523,0-10-4.478-10-10s4.477-10,10-10h100c5.522,0,10,4.478,10,10
			S295.522,280,290,280z"/>
		<path style="fill:#4D80C9;" d="M390,490c-44.112,0-80-35.888-80-80s35.888-80,80-80s80,35.888,80,80S434.112,490,390,490z
			 M390,350c-33.084,0-60,26.916-60,60s26.916,60,60,60s60-26.916,60-60S423.084,350,390,350z"/>
		<path style="fill:#4D80C9;" d="M90,480c-16.542,0-30-13.458-30-30s13.458-30,30-30s30,13.458,30,30S106.542,480,90,480z M90,440
			c-5.514,0-10,4.486-10,10s4.486,10,10,10s10-4.486,10-10S95.514,440,90,440z"/>
		<path style="fill:#4D80C9;" d="M180,80c-16.542,0-30-13.458-30-30s13.458-30,30-30s30,13.458,30,30S196.542,80,180,80z M180,40
			c-5.514,0-10,4.486-10,10s4.486,10,10,10c5.514,0,10-4.486,10-10S185.514,40,180,40z"/>
		<path style="fill:#4D80C9;" d="M445,80c-13.785,0-25-11.215-25-25s11.215-25,25-25c13.785,0,25,11.215,25,25S458.785,80,445,80z
			 M445,50c-2.757,0-5,2.243-5,5s2.243,5,5,5c2.757,0,5-2.243,5-5S447.757,50,445,50z"/>
	</g>
</g>
<g id="Layer_1">
</g>
</svg>
