<?xml version="1.0" encoding="UTF-8" standalone="no"?> <svg width="512" height="512" viewBox="0 0 512 512" fill="none" xmlns="http://www.w3.org/2000/svg">
<path d="M496 376V400C495.998 406.365 493.469 412.468 488.969 416.969C484.468 421.469 478.365 423.998 472 424H40C33.6353 423.998 27.5317 421.469 23.0312 416.969C18.5307 412.468 16.0016 406.365 16 400V376H496Z" fill="#57A4FF"/>
<path d="M152 136H72C58.7452 136 48 146.745 48 160V248C48 261.255 58.7452 272 72 272H152C165.255 272 176 261.255 176 248V160C176 146.745 165.255 136 152 136Z" fill="#57A4FF"/>
<path d="M176 296H48V320H176V296Z" fill="#57A4FF"/>
<path d="M424 104V208C370.67 229.333 317.337 229.333 264 208V104H424Z" fill="#57A4FF"/>
<path d="M400 264H208V296H400V264Z" fill="#57A4FF"/>
<path d="M448 256C456.837 256 464 248.837 464 240C464 231.163 456.837 224 448 224C439.163 224 432 231.163 432 240C432 248.837 439.163 256 448 256Z" fill="#57A4FF"/>
<path d="M344 472H168V496H344V472Z" fill="#57A4FF"/>
<path d="M424 80V208C370.67 229.333 317.337 229.333 264 208V80H424Z" fill="#57A4FF"/>
<path d="M448 256C456.837 256 464 248.837 464 240C464 231.163 456.837 224 448 224C439.163 224 432 231.163 432 240C432 248.837 439.163 256 448 256Z" fill="#57A4FF"/>
<path d="M80 248L112 160L144 248H80Z" fill="#57A4FF"/>
<path d="M152 136H72C58.7452 136 48 146.745 48 160V248C48 261.255 58.7452 272 72 272H152C165.255 272 176 261.255 176 248V160C176 146.745 165.255 136 152 136Z" fill="#57A4FF"/>
<path d="M176 296H48V320H176V296Z" fill="#57A4FF"/>
<path d="M400 264H208V296H400V264Z" fill="#57A4FF"/>
<path d="M344 112L224 64L344 16L464 64L344 112Z" fill="#57A4FF"/>
<path d="M472 96H456V75.82L466.97 71.43C468.456 70.8369 469.73 69.8119 470.627 68.4874C471.525 67.163 472.004 65.5998 472.004 64C472.004 62.4001 471.525 60.837 470.627 59.5125C469.73 58.188 468.456 57.1631 466.97 56.57L346.97 8.56997C345.063 7.81001 342.937 7.81001 341.03 8.56997L221.03 56.57C219.544 57.1631 218.27 58.188 217.373 59.5125C216.475 60.837 215.996 62.4001 215.996 64C215.996 65.5998 216.475 67.163 217.373 68.4874C218.27 69.8119 219.544 70.8369 221.03 71.43L256 85.42V96H40C31.516 96.0095 23.3822 99.384 17.3831 105.383C11.384 111.382 8.00953 119.516 8 128V400C8.00953 408.484 11.384 416.618 17.3831 422.617C23.3822 428.616 31.516 431.99 40 432H204.9L194.23 464H168C165.878 464 163.843 464.843 162.343 466.343C160.843 467.843 160 469.878 160 472V488H80C77.8783 488 75.8434 488.843 74.3431 490.343C72.8429 491.843 72 493.878 72 496C72 498.122 72.8429 500.157 74.3431 501.657C75.8434 503.157 77.8783 504 80 504H432C434.122 504 436.157 503.157 437.657 501.657C439.157 500.157 440 498.122 440 496C440 493.878 439.157 491.843 437.657 490.343C436.157 488.843 434.122 488 432 488H352V472C352 469.878 351.157 467.843 349.657 466.343C348.157 464.843 346.122 464 344 464H317.77L307.1 432H472C480.484 431.99 488.618 428.616 494.617 422.617C500.616 416.618 503.99 408.484 504 400V128C503.99 119.516 500.616 111.382 494.617 105.383C488.618 99.384 480.484 96.0095 472 96V96ZM456 240C456 241.582 455.531 243.129 454.652 244.445C453.773 245.76 452.523 246.786 451.061 247.391C449.6 247.997 447.991 248.155 446.439 247.846C444.887 247.538 443.462 246.776 442.343 245.657C441.224 244.538 440.462 243.113 440.154 241.561C439.845 240.009 440.003 238.4 440.609 236.939C441.214 235.477 442.24 234.227 443.555 233.348C444.871 232.469 446.418 232 448 232C450.121 232.003 452.154 232.847 453.654 234.346C455.153 235.846 455.997 237.879 456 240V240ZM245.54 64L344 24.62L442.46 64L420.9 72.62C420.89 72.63 420.89 72.63 420.88 72.63L344 103.38L267.12 72.63C267.11 72.63 267.11 72.63 267.1 72.62L245.54 64ZM416 91.82V202.52C368.2 220.37 319.8 220.37 272 202.52V91.82L341.03 119.43C342.937 120.19 345.063 120.19 346.97 119.43L416 91.82ZM336 480V488H176V480H336ZM211.1 464L221.77 432H290.23L300.9 464H211.1ZM488 400C487.994 404.242 486.307 408.308 483.308 411.308C480.308 414.307 476.242 415.994 472 416H40C35.7582 415.994 31.6918 414.307 28.6924 411.308C25.6931 408.308 24.0056 404.242 24 400V384H488V400ZM488 368H24V128C24.0056 123.758 25.6931 119.692 28.6924 116.692C31.6918 113.693 35.7582 112.006 40 112H256V208C256 209.599 256.48 211.162 257.376 212.486C258.273 213.81 259.545 214.836 261.03 215.43C288.56 226.44 316.28 231.94 344 231.94C371.72 231.94 399.44 226.44 426.97 215.43C428.455 214.836 429.727 213.81 430.624 212.486C431.52 211.162 432 209.599 432 208V85.42L440 82.22V216C440.004 216.449 440.044 216.897 440.12 217.34C434.762 219.202 430.237 222.902 427.347 227.784C424.458 232.665 423.391 238.412 424.335 244.005C425.279 249.598 428.174 254.676 432.506 258.338C436.838 262 442.328 264.009 448 264.009C453.672 264.009 459.162 262 463.494 258.338C467.826 254.676 470.721 249.598 471.665 244.005C472.609 238.412 471.542 232.665 468.653 227.784C465.763 222.902 461.238 219.202 455.88 217.34C455.956 216.897 455.996 216.449 456 216V112H472C476.242 112.006 480.308 113.693 483.308 116.692C486.307 119.692 487.994 123.758 488 128V368Z" fill="#004FAC"/>
<path d="M96 392H48C45.8783 392 43.8434 392.843 42.3431 394.343C40.8429 395.843 40 397.878 40 400C40 402.122 40.8429 404.157 42.3431 405.657C43.8434 407.157 45.8783 408 48 408H96C98.1217 408 100.157 407.157 101.657 405.657C103.157 404.157 104 402.122 104 400C104 397.878 103.157 395.843 101.657 394.343C100.157 392.843 98.1217 392 96 392Z" fill="#004FAC"/>
<path d="M128 392H120C117.878 392 115.843 392.843 114.343 394.343C112.843 395.843 112 397.878 112 400C112 402.122 112.843 404.157 114.343 405.657C115.843 407.157 117.878 408 120 408H128C130.122 408 132.157 407.157 133.657 405.657C135.157 404.157 136 402.122 136 400C136 397.878 135.157 395.843 133.657 394.343C132.157 392.843 130.122 392 128 392Z" fill="#004FAC"/>
<path d="M152 128H72C63.516 128.01 55.3822 131.384 49.3831 137.383C43.384 143.382 40.0095 151.516 40 160V248C40.0095 256.484 43.384 264.618 49.3831 270.617C55.3822 276.616 63.516 279.99 72 280H152C160.484 279.99 168.618 276.616 174.617 270.617C180.616 264.618 183.99 256.484 184 248V160C183.99 151.516 180.616 143.382 174.617 137.383C168.618 131.384 160.484 128.01 152 128ZM168 248C167.994 252.242 166.307 256.308 163.308 259.308C160.308 262.307 156.242 263.994 152 264H72C67.7582 263.994 63.6918 262.307 60.6924 259.308C57.6931 256.308 56.0056 252.242 56 248V160C56.0056 155.758 57.6931 151.692 60.6924 148.692C63.6918 145.693 67.7582 144.006 72 144H152C156.242 144.006 160.308 145.693 163.308 148.692C166.307 151.692 167.994 155.758 168 160V248Z" fill="#004FAC"/>
<path d="M151.52 245.27L119.52 157.27C118.96 155.726 117.937 154.391 116.592 153.448C115.246 152.505 113.643 151.999 112 151.999C110.357 151.999 108.754 152.505 107.409 153.448C106.063 154.391 105.041 155.726 104.48 157.27L72.4802 245.27C72.1217 246.258 71.9612 247.306 72.0079 248.356C72.0546 249.405 72.3076 250.435 72.7524 251.387C73.1972 252.339 73.8251 253.194 74.6002 253.903C75.3754 254.612 76.2827 255.161 77.2702 255.52C78.2577 255.879 79.3062 256.039 80.3558 255.992C81.4054 255.946 82.4354 255.693 83.3872 255.248C84.339 254.803 85.1939 254.175 85.9031 253.4C86.6122 252.625 87.1617 251.718 87.5202 250.73L97.2402 224H126.76L136.48 250.73C137.041 252.274 138.063 253.609 139.409 254.551C140.754 255.494 142.357 256 144 256C144.931 256.002 145.856 255.84 146.73 255.52C147.718 255.162 148.625 254.612 149.4 253.903C150.175 253.194 150.803 252.339 151.248 251.387C151.693 250.435 151.946 249.405 151.993 248.356C152.039 247.306 151.879 246.258 151.52 245.27ZM103.06 208L112 183.41L120.94 208H103.06Z" fill="#004FAC"/>
<path d="M48 328H176C178.122 328 180.157 327.157 181.657 325.657C183.157 324.157 184 322.122 184 320V296C184 293.878 183.157 291.843 181.657 290.343C180.157 288.843 178.122 288 176 288H48C45.8783 288 43.8434 288.843 42.3431 290.343C40.8429 291.843 40 293.878 40 296V320C40 322.122 40.8429 324.157 42.3431 325.657C43.8434 327.157 45.8783 328 48 328ZM56 304H168V312H56V304Z" fill="#004FAC"/>
<path d="M208 304H400C402.122 304 404.157 303.157 405.657 301.657C407.157 300.157 408 298.122 408 296V264C408 261.878 407.157 259.843 405.657 258.343C404.157 256.843 402.122 256 400 256H208C205.878 256 203.843 256.843 202.343 258.343C200.843 259.843 200 261.878 200 264V296C200 298.122 200.843 300.157 202.343 301.657C203.843 303.157 205.878 304 208 304ZM216 272H392V288H216V272Z" fill="#004FAC"/>
<path d="M48 352H176C178.122 352 180.157 351.157 181.657 349.657C183.157 348.157 184 346.122 184 344C184 341.878 183.157 339.843 181.657 338.343C180.157 336.843 178.122 336 176 336H48C45.8783 336 43.8434 336.843 42.3431 338.343C40.8429 339.843 40 341.878 40 344C40 346.122 40.8429 348.157 42.3431 349.657C43.8434 351.157 45.8783 352 48 352Z" fill="#004FAC"/>
<path d="M208 328H400C402.122 328 404.157 327.157 405.657 325.657C407.157 324.157 408 322.122 408 320C408 317.878 407.157 315.843 405.657 314.343C404.157 312.843 402.122 312 400 312H208C205.878 312 203.843 312.843 202.343 314.343C200.843 315.843 200 317.878 200 320C200 322.122 200.843 324.157 202.343 325.657C203.843 327.157 205.878 328 208 328Z" fill="#004FAC"/>
<path d="M208 352H272C274.122 352 276.157 351.157 277.657 349.657C279.157 348.157 280 346.122 280 344C280 341.878 279.157 339.843 277.657 338.343C276.157 336.843 274.122 336 272 336H208C205.878 336 203.843 336.843 202.343 338.343C200.843 339.843 200 341.878 200 344C200 346.122 200.843 348.157 202.343 349.657C203.843 351.157 205.878 352 208 352Z" fill="#004FAC"/>
<path d="M304 336H296C293.878 336 291.843 336.843 290.343 338.343C288.843 339.843 288 341.878 288 344C288 346.122 288.843 348.157 290.343 349.657C291.843 351.157 293.878 352 296 352H304C306.122 352 308.157 351.157 309.657 349.657C311.157 348.157 312 346.122 312 344C312 341.878 311.157 339.843 309.657 338.343C308.157 336.843 306.122 336 304 336Z" fill="#004FAC"/>
</svg>
